# xmcd
#
# Track frame offsets: 
#        150
#        31897
#        50784
#        73293
#        90306
#        111264
#        136958
#        154752
#        167984
#        187411
#        206212
#        226318
#        241735
#
# Disc length: 3373 seconds
#
# Revision: 0
# Processed by: cddbd v1.5.2PL0 Copyright (c) Steve Scherf et al.
# Submitted via: ExactAudioCopyFreeDBPlugin 1.0
#
DISCID=bd0d2b0d
DTITLE=瑞鸣 - 敕勒歌
DYEAR=2015
DGENRE=
TTITLE0=故乡
TTITLE1=金镯子
TTITLE2=罗阳姑娘
TTITLE3=乌拉勒吉
TTITLE4=可爱的海骝马
TTITLE5=初升的太阳
TTITLE6=阿拉什河
TTITLE7=四季
TTITLE8=天空
TTITLE9=德恩吉图陶海
TTITLE10=苏伯岱
TTITLE11=原野上鸣叫的稚鸟
TTITLE12=牧马人
EXTD=
EXTT0=
EXTT1=
EXTT2=
EXTT3=
EXTT4=
EXTT5=
EXTT6=
EXTT7=
EXTT8=
EXTT9=
EXTT10=
EXTT11=
EXTT12=
PLAYORDER=
